<svg width="282" height="180" viewBox="0 0 282 180" fill="none" xmlns="http://www.w3.org/2000/svg">
<circle cx="138" cy="90" r="74" fill="#E2DEDE"/>
<path d="M253.695 100.164L253.625 80.8984C253.625 78.2734 253.203 76.4922 252.359 75.5547C250.812 73.8203 247.953 72.9531 243.781 72.9531H232.672C226.859 72.9531 223.672 74.5938 223.109 77.875C222.969 78.8125 222.898 79.8203 222.898 80.8984L222.828 101.992C222.828 120.18 223.766 131.57 225.641 136.164C226.391 137.945 227.562 139.891 229.156 142H202.789C204.289 138.438 205.156 135.461 205.391 133.07C205.672 130.68 205.953 127.727 206.234 124.211C206.75 116.852 207.008 108.438 207.008 98.9688C207.008 89.5 206.984 82.9844 206.938 79.4219C206.891 75.8125 206.844 72.2969 206.797 68.875C206.469 54.6719 206.023 46.1641 205.461 43.3516C204.898 40.4922 204.43 38.5703 204.055 37.5859L202.789 34.4219H229.156C225.781 38.1719 223.906 43.2344 223.531 49.6094C223.391 51.5312 223.32 53.5469 223.32 55.6562C223.32 57.7656 223.508 59.4297 223.883 60.6484C224.305 61.8203 224.984 62.6875 225.922 63.25C227.188 64.0938 230.164 64.5156 234.852 64.5156H241.531C246.312 64.5156 249.266 64.1641 250.391 63.4609C252.266 62.2422 253.203 59.5938 253.203 55.5156C253.203 45.5312 251.234 38.5 247.297 34.4219H273.664C272.258 37.5156 271.391 40.375 271.062 43C270.781 45.625 270.57 48.1562 270.43 50.5938C270.289 52.9844 270.148 55.7734 270.008 58.9609C269.867 62.1484 269.75 65.4531 269.656 68.875C269.516 76.8438 269.445 84.0625 269.445 90.5312C269.445 116.828 270.43 132.93 272.398 138.836C272.727 139.82 273.148 140.875 273.664 142H247.297C249.641 138.859 251.07 136.164 251.586 133.914C252.102 131.617 252.5 128.922 252.781 125.828C253.391 119.875 253.695 111.32 253.695 100.164Z" fill="#151515"/>
<path d="M57.1641 142C57.7734 139.047 58.0781 136.703 58.0781 134.969C58.0781 133.188 58.0312 131.852 57.9375 130.961C57.8906 130.07 57.7969 129.133 57.6562 128.148C57.5625 127.117 57.4219 125.992 57.2344 124.773C57.0938 123.508 56.9531 122.055 56.8125 120.414C55.7344 109.211 51.9141 100 45.3516 92.7812C42.4453 89.5938 39.3047 87.1797 35.9297 85.5391C32.5547 83.8516 29.7656 83.0078 27.5625 83.0078C25.4062 83.0078 23.7422 83.1484 22.5703 83.4297C19.9453 91.3047 18.6328 99.5312 18.6328 108.109C18.6328 115.703 19.0312 121.375 19.8281 125.125C21.0938 130.75 23.0391 136.398 25.6641 142.07H4.64062C5.76562 139.258 6.32812 133.352 6.32812 124.352C6.32812 115.305 7.00781 106.867 8.36719 99.0391C9.72656 91.1641 11.4844 84.1562 13.6406 78.0156C15.8438 71.875 18.2812 66.5078 20.9531 61.9141C23.6719 57.2734 26.3672 53.2422 29.0391 49.8203C31.7578 46.3516 34.3125 43.3984 36.7031 40.9609C39.0938 38.4766 41.0859 36.2969 42.6797 34.4219H64.8281C62.8125 36.7188 61.8047 39.9297 61.8047 44.0547C61.8047 45.9297 62.1094 49 62.7188 53.2656L64.4766 66.0625C70.8984 110.312 76.6406 135.625 81.7031 142H57.1641ZM25.4531 75.9766C27.2812 75.2734 29.2031 74.9219 31.2188 74.9219C33.2344 74.9219 35.0391 75.0625 36.6328 75.3438C38.2734 75.625 39.8906 76.0938 41.4844 76.75C44.9062 78.0625 47.7656 80.1484 50.0625 83.0078C47.7656 70.9609 46.3594 63.6016 45.8438 60.9297L43.3828 48.625L39.375 53.4062C33.75 60.1562 29.1094 67.6797 25.4531 75.9766Z" fill="#151515"/>
<path d="M115.184 95.2721L131.473 111.675L124.96 118.234L131.483 124.798L124.965 131.358L113.557 119.877L100.517 133L94 126.441L107.04 113.313L95.6317 101.836L102.149 95.2767L108.667 101.831L115.18 95.2721H115.184ZM96.5167 47L112.861 47.0139L167.329 101.836L173.851 95.2767L180.368 101.836L168.965 113.317L182 126.441L175.483 133L162.443 119.877L151.035 131.358L144.517 124.798L151.035 118.234L96.5305 63.3798L96.5167 47ZM163.153 47L179.483 47.0139L179.493 63.3567L160.811 82.1534L144.513 65.7549L163.153 47Z" fill="#5A5A7D"/>
</svg>
