<svg width="158" height="158" viewBox="0 0 158 158" fill="none" xmlns="http://www.w3.org/2000/svg">
<path d="M144.899 55.5248C133.379 67.0453 114.701 67.0453 103.18 55.5248C91.6597 44.0043 91.6597 25.326 103.18 13.8055C104.091 12.8943 105.047 12.0551 106.041 11.2881C93.7347 10.3921 81.1235 14.6489 71.7139 24.0585C62.3043 33.4682 58.0475 46.0793 58.9435 58.3857C59.7105 57.392 60.5497 56.436 61.4609 55.5248C72.9813 44.0043 91.6597 44.0043 103.18 55.5248C114.701 67.0453 114.701 85.7236 103.18 97.2441C102.51 97.9142 101.816 98.5454 101.1 99.1376C112.929 99.5993 124.909 95.3147 133.939 86.2839C142.97 77.2532 147.255 65.2735 146.793 53.4445C146.201 54.1603 145.57 54.8547 144.899 55.5248Z" fill="#454444"/>
<path d="M90.3131 30.9152L127.083 67.6848L116.476 78.2914L79.7065 41.5218L90.3131 30.9152Z" fill="#454444"/>
<path d="M110.112 42.2289L115.769 47.8858L34.4517 129.203L28.7948 123.546L110.112 42.2289Z" fill="#454444"/>
<path d="M50.7151 98.7974L59.2004 107.283L36.573 129.91L28.0877 121.425L50.7151 98.7974Z" fill="#454444"/>
</svg>
