<svg width="198" height="199" viewBox="0 0 198 199" fill="none" xmlns="http://www.w3.org/2000/svg">
<path d="M69.3015 129.195L57.9878 117.882C87.9873 99.1027 102.516 85.0874 123.395 52.4743C139.257 37.3262 150.341 31.3797 173.6 24.8971C167.117 48.1561 161.171 59.2394 146.023 75.1017C113.409 95.9808 99.3942 110.51 80.6152 140.509L69.3015 129.195Z" fill="#454444"/>
<path d="M49.8561 109.043L89.454 148.641L85.2114 152.883L45.6134 113.285L49.8561 109.043Z" fill="#454444"/>
<path d="M60.4627 128.135L70.3622 138.034L29.35 179.046L19.4505 169.147L60.4627 128.135Z" fill="#454444"/>
<path d="M91.5754 155.005C89.2322 157.348 85.4332 157.348 83.0901 155.005C80.7469 152.662 80.7469 148.863 83.0901 146.519C85.4332 144.176 89.2322 144.176 91.5754 146.519C93.9185 148.863 93.9185 152.662 91.5754 155.005Z" fill="#454444"/>
<path d="M51.9774 115.407C49.6342 117.75 45.8352 117.75 43.4921 115.407C41.149 113.064 41.149 109.265 43.4921 106.921C45.8352 104.578 49.6342 104.578 51.9774 106.921C54.3205 109.265 54.3205 113.064 51.9774 115.407Z" fill="#454444"/>
</svg>
