<svg width="209" height="209" viewBox="0 0 209 209" fill="none" xmlns="http://www.w3.org/2000/svg">
<path d="M132.643 52.543C133.998 50.5322 135.799 48.0312 138.097 47.6571C138.791 47.5441 139.641 47.4586 140.496 47.3476M140.496 47.3476C141.696 47.192 142.905 46.9865 143.708 46.5854M140.496 47.3476C141.822 47.6899 142.78 49.0622 143.991 50.2734L146.828 53.1104C147.904 54.1858 148.808 53.7769 149.791 54.4028C151.108 55.2409 152.976 54.8126 154.488 54.8126C156.293 54.8126 160.154 53.6711 161.581 54.8126C162.088 55.2185 165.542 54.3291 166.277 53.9615C167.635 53.2828 168.867 51.4977 169.95 50.4152C173.289 47.0759 179.52 43.5472 180.746 39.0515C181.245 37.2227 184.155 34.8474 183.772 33.1884C183.651 32.663 184.181 30.8108 184.371 30.1938C185.017 28.0942 184.045 29.4711 184.135 30.2726C184.333 32.0623 178.341 34.6349 177.326 34.2444C175.067 33.3755 172.277 34.1017 170.375 32.4004C169.791 31.8777 168.168 31.8134 167.318 31.4862C166.228 31.0671 165.414 30.5568 164.15 30.3987C161.474 30.0642 158.358 30.519 155.844 31.4862C154.326 32.0698 153.382 31.8043 152.155 33.0308L149.24 35.9466C147.107 38.0793 145.645 40.6756 143.424 42.8972C142.958 43.3628 142.951 44.9041 141.722 45.0407C140.837 45.139 140.179 45.6889 139.31 45.5924C138.253 45.4749 136.998 46.5333 136.19 46.4435C135.708 46.39 135.225 47.1239 134.913 47.4364C134.111 48.2381 132.819 48.43 131.792 48.8549M140.496 47.3476C140.017 47.224 139.489 47.2348 138.885 47.4364M28.6863 181.054C31.7963 173.347 35.5335 166.421 40.4239 159.575C44.7345 153.54 49.2706 148.996 52.6898 142.32C55.0603 137.692 56.3668 133.303 60.0846 129.585C61.7292 127.94 63.3512 126.787 65.5426 126.005C66.6796 125.599 67.7109 124.857 68.8292 124.538C70.194 124.148 72.1028 124.053 73.3482 123.481C82.089 119.465 90.6939 114.316 98.5842 107.929C103.405 104.026 108.382 101.603 112.669 97.0713C114.614 95.0153 118.692 90.8839 119.037 88.1213C119.604 83.5877 122.19 77.1021 121.238 72.6569C120.942 71.2782 122.469 70.2455 122.06 68.6661C121.652 67.0957 122.09 66.0218 121.179 64.3819C120.44 63.0509 123.732 60.5752 124.407 59.5107C126.014 56.9784 128.452 53.7061 129.308 50.7955C130.318 47.3609 128.598 43.8287 128.926 40.437C129.228 37.3126 129.477 32.6236 128.585 29.6817M128.585 29.6817C128.563 29.6074 128.539 29.5343 128.515 29.4623M128.585 29.6817C130.218 28.9501 130.922 31.0682 130.922 33.1596C130.922 34.4272 132.853 38.4506 132.418 39.2339C131.488 40.9079 134.091 42.8708 134.091 44.7799C134.091 45.6554 132.788 46.8124 133.034 47.7143C133.416 49.1131 133.57 50.8175 132.477 51.9106C130.587 53.8008 130.684 56.8722 128.486 59.0706C127.52 60.0366 124.749 61.8266 125.229 63.3842C125.631 64.6916 125.788 65.6289 125.64 66.9641C125.38 69.3029 125.816 71.6034 125.816 73.8307C125.816 75.2104 124.055 75.5794 124.055 76.9999C124.055 77.7808 124.246 79.0181 123.762 79.6408C122.861 80.7992 123.527 84.4155 123.527 85.9792C123.527 88.5282 123.835 90.1317 121.942 92.0241C120.005 93.9611 120.243 95.8359 118.48 97.5995C116.485 99.5941 114.764 100.192 112.405 101.502C107.577 104.185 105.178 109.223 101.049 112.917C99.1749 114.594 96.8984 114.695 94.9749 115.764C92.127 117.346 88.6937 118.944 85.7314 120.84M128.585 29.6817C128.25 29.8321 127.875 30.1027 127.459 30.5186M37.6656 185.808C39.4283 178.861 43.404 172.677 43.7692 165.737C43.8921 163.401 48.2624 157.912 49.55 156.083C52.0568 152.52 53.0328 149.313 56.1525 146.194C59.027 143.319 58.8104 142.096 59.2923 138.241C59.6777 135.158 61.7789 132.917 64.0754 130.876C65.3363 129.755 77.8058 128.937 79.3931 130.348C81.2023 131.956 85.5573 132.517 88.079 133.223C90.2428 133.829 92.1568 135.298 94.3 135.747C95.785 136.058 100.414 136.95 101.577 136.451C105.492 134.773 110.354 135.633 114.606 134.338C119.713 132.784 125.211 134.18 129.161 130.23C132.204 127.187 133.734 125.814 134.854 121.897C135.725 118.848 136.439 114.347 135.147 111.333C132.852 105.977 128.472 101.254 124.29 97.0713M87.3161 120.312C84.6269 123.001 82.7666 123.477 85.9956 125.271C86.9204 125.785 89.0449 126.744 90.0744 127.061C92.8619 127.919 95.7294 128.098 98.5256 129.174C101.391 130.276 107.638 130.373 110.028 128.235C111.872 126.585 117.909 128.528 120.064 128.528C121.534 128.528 127.335 122.549 128.515 121.368C130.581 119.303 130.012 114.414 127.987 112.389C125.779 110.181 126.233 106.652 124.29 104.466C121.583 101.421 120.768 99.5372 123.762 96.5431M115.31 87.0356C112.042 84.8342 111.892 84.4932 108.444 84.3946C106.698 84.3448 105.397 82.742 103.954 83.5437C102.779 84.1964 101.563 83.2514 100.227 84.1012C98.8269 84.9925 96.5753 84.3295 94.9455 84.3946C91.9969 84.5126 89.6252 86.311 87.5801 88.3561C86.4979 89.4384 85.6333 90.0314 85.4673 91.5253C85.3947 92.1795 85.1786 94.9182 85.7314 94.4304C87.4266 92.9347 90.4109 88.1945 92.8327 88.855C95.2907 89.5253 97.4127 88.855 99.9927 88.855C101.302 88.855 101.819 88.7058 103.162 88.855C104.171 88.9671 105.766 90.6736 106.625 90.4396C108.625 89.8939 108.824 90.0572 110.293 91.5253C111.532 92.7643 112.811 90.5914 113.726 89.6766M115.905 86.8706C114.573 88.2708 114.812 89.6666 113.636 90.8424M29.0936 181.059C28.8738 181.899 27.4003 185.333 29.393 185.582C30.8382 185.763 31.2962 184.579 32.5137 184.731C34.6062 184.992 36.6769 184.823 38.1719 183.328" stroke="#C4C4C4" stroke-linecap="round" stroke-linejoin="round"/>
</svg>
