<svg width="19" height="24" viewBox="0 0 19 24" fill="none" xmlns="http://www.w3.org/2000/svg">
<path d="M9.5 0L0.519333 3.77852L0 4.00947V18.0147L0.420375 18.2722L9.12871 23.7709L9.5 24L9.87129 23.7709L18.5796 18.2722L19 18.0147V4.00855L18.4807 3.77944L9.5 0ZM9.5 1.94654L16.1302 4.72522L9.5 8.21873L2.86979 4.72522L9.5 1.94654ZM9.5 3.72262C8.62521 3.72262 7.91667 4.13502 7.91667 4.63907C7.91667 5.14312 8.62521 5.55552 9.5 5.55552C10.3748 5.55552 11.0833 5.14312 11.0833 4.63907C11.0833 4.13502 10.3748 3.72262 9.5 3.72262ZM1.58333 6.04216L8.70833 9.7941V21.422L1.58333 16.925V6.04216ZM17.4167 6.04216V16.925L10.2917 21.422V9.79319L17.4167 6.04216ZM6.85267 10.1378C6.55975 10.1378 6.33333 10.4631 6.33333 10.9397C6.33333 11.5519 6.61438 12.186 7.02604 12.4573C7.14321 12.5251 7.27938 12.515 7.39733 12.515C7.57308 12.515 7.67521 12.4509 7.79317 12.3143C7.85175 12.1787 7.91667 11.9844 7.91667 11.7132C7.91667 11.101 7.56042 10.4668 7.14954 10.1955C7.03238 10.1268 6.97063 10.1378 6.85267 10.1378ZM12.6912 11.0542C12.622 11.072 12.5554 11.101 12.4933 11.1404C12.0104 11.3796 11.6027 12.1714 11.6027 12.8871C11.6027 13.1272 11.5868 13.3563 11.727 13.5176C11.8655 13.678 12.0143 13.7742 12.2218 13.7742C12.3603 13.7742 12.5028 13.7678 12.6413 13.689C13.1243 13.3701 13.4583 12.6369 13.4583 11.9991C13.4583 11.44 13.2541 11.0542 12.84 11.0542C12.806 11.0542 12.7498 11.0432 12.6912 11.0542ZM4.84896 12.2282C4.55525 12.2282 4.32963 12.5545 4.32963 13.0301C4.32963 13.6423 4.61067 14.2471 5.02233 14.5193C5.1395 14.5871 5.25113 14.6055 5.36829 14.6055C5.54483 14.6055 5.6715 14.5413 5.78867 14.4048C5.84804 14.2691 5.91296 14.0473 5.91296 13.7752C5.91296 13.163 5.55671 12.5581 5.14583 12.2859C5.02867 12.2181 4.96613 12.2282 4.84896 12.2282ZM15.462 13.2885C15.4035 13.2986 15.3322 13.3059 15.2641 13.3453C14.7812 13.5855 14.3735 14.4048 14.3735 15.1214C14.3735 15.3606 14.383 15.5897 14.5223 15.751C14.6617 15.9123 14.7852 15.9801 14.9918 15.9801C15.1311 15.9801 15.2736 16.0012 15.413 15.9224C15.8959 15.6044 16.2292 14.8703 16.2292 14.2334C16.2292 13.6744 16.0249 13.2876 15.6109 13.2876C15.5768 13.2876 15.5206 13.2775 15.462 13.2876V13.2885ZM2.89433 14.1757C2.60142 14.1757 2.375 14.5019 2.375 14.9775C2.375 15.5897 2.65604 16.2239 3.06771 16.4961C3.18488 16.5639 3.32104 16.5529 3.439 16.5529C3.61475 16.5529 3.71688 16.4888 3.83483 16.3522C3.89342 16.2166 3.95833 16.0223 3.95833 15.751C3.95833 15.1388 3.60208 14.5047 3.19121 14.2334C3.07404 14.1656 3.01229 14.1757 2.89433 14.1757Z" fill="#151515"/>
</svg>
