<svg width="18" height="18" viewBox="0 0 18 18" fill="none" xmlns="http://www.w3.org/2000/svg">
<path d="M16.2854 7.86008L14.6104 7.36008C14.4945 6.95573 14.3353 6.56512 14.1354 6.19508L14.9554 4.66008C14.9861 4.60214 14.9974 4.53582 14.9875 4.47097C14.9776 4.40612 14.947 4.34619 14.9004 4.30008L13.7054 3.10008C13.6592 3.05341 13.5993 3.02286 13.5345 3.01295C13.4696 3.00304 13.4033 3.01431 13.3454 3.04508L11.8204 3.86008C11.4467 3.65041 11.0509 3.48272 10.6404 3.36008L10.1404 1.70508C10.1192 1.64408 10.0792 1.59138 10.0262 1.55454C9.97322 1.5177 9.90989 1.49863 9.84535 1.50008H8.15535C8.09042 1.50038 8.02728 1.52139 7.97513 1.56006C7.92297 1.59873 7.88451 1.65304 7.86535 1.71508L7.36535 3.36508C6.95136 3.48707 6.55223 3.65477 6.17535 3.86508L4.67535 3.05508C4.61741 3.02431 4.55109 3.01304 4.48624 3.02295C4.42139 3.03286 4.36146 3.06341 4.31535 3.11008L3.10035 4.29508C3.05369 4.34119 3.02313 4.40112 3.01322 4.46597C3.00332 4.53082 3.01458 4.59714 3.04535 4.65508L3.85535 6.15508C3.64538 6.53037 3.47769 6.9278 3.35535 7.34008L1.70035 7.84008C1.63831 7.85924 1.58401 7.89769 1.54534 7.94985C1.50667 8.00201 1.48565 8.06515 1.48535 8.13008V9.82008C1.48565 9.885 1.50667 9.94814 1.54534 10.0003C1.58401 10.0525 1.63831 10.0909 1.70035 10.1101L3.36535 10.6101C3.48902 11.0155 3.65669 11.4061 3.86535 11.7751L3.04535 13.3451C3.01458 13.403 3.00332 13.4693 3.01322 13.5342C3.02313 13.599 3.05369 13.659 3.10035 13.7051L4.29535 14.9001C4.34146 14.9467 4.40139 14.9773 4.46624 14.9872C4.53109 14.9971 4.59741 14.9858 4.65535 14.9551L6.20035 14.1301C6.56583 14.3273 6.95136 14.4849 7.35035 14.6001L7.85035 16.2851C7.86951 16.3471 7.90797 16.4014 7.96013 16.4401C8.01228 16.4788 8.07542 16.4998 8.14035 16.5001H9.83035C9.89528 16.4998 9.95842 16.4788 10.0106 16.4401C10.0627 16.4014 10.1012 16.3471 10.1204 16.2851L10.6204 14.5951C11.0159 14.4793 11.3981 14.3217 11.7604 14.1251L13.3154 14.9551C13.3733 14.9858 13.4396 14.9971 13.5045 14.9872C13.5693 14.9773 13.6292 14.9467 13.6754 14.9001L14.8704 13.7051C14.917 13.659 14.9476 13.599 14.9575 13.5342C14.9674 13.4693 14.9561 13.403 14.9254 13.3451L14.0954 11.7951C14.294 11.4314 14.4533 11.0476 14.5704 10.6501L16.2554 10.1501C16.3174 10.1309 16.3717 10.0925 16.4104 10.0403C16.449 9.98814 16.47 9.925 16.4704 9.86008V8.15508C16.4733 8.0929 16.4572 8.03131 16.4241 7.97858C16.391 7.92585 16.3426 7.8845 16.2854 7.86008V7.86008ZM9.00035 11.7501C8.45645 11.7501 7.92477 11.5888 7.47253 11.2866C7.0203 10.9844 6.66782 10.555 6.45968 10.0525C6.25154 9.54996 6.19708 8.99703 6.30319 8.46358C6.4093 7.93013 6.67121 7.44013 7.05581 7.05553C7.4404 6.67094 7.93041 6.40903 8.46385 6.30292C8.9973 6.19681 9.55023 6.25127 10.0527 6.45941C10.5552 6.66755 10.9847 7.02002 11.2869 7.47226C11.5891 7.92449 11.7504 8.45618 11.7504 9.00008C11.7504 9.72942 11.4606 10.4289 10.9449 10.9446C10.4292 11.4603 9.7297 11.7501 9.00035 11.7501V11.7501Z" fill="white"/>
</svg>
